<svg width="24" height="24" viewBox="0 0 24 24" fill="none" xmlns="http://www.w3.org/2000/svg">
<g id="Frame">
<path id="Vector" d="M4.2565 16.5938C3.13983 14.7098 2.74924 12.483 3.15804 10.3315C3.56684 8.17989 4.74693 6.25153 6.47677 4.90838C8.2066 3.56523 10.3672 2.89967 12.553 3.03666C14.7388 3.17364 16.7994 4.10374 18.348 5.65235C19.8966 7.20095 20.8267 9.26157 20.9637 11.4473C21.1007 13.6331 20.4351 15.7937 19.0919 17.5236C17.7488 19.2534 15.8204 20.4335 13.6689 20.8423C11.5173 21.2511 9.29049 20.8605 7.4065 19.7438V19.7438L4.294 20.6251C4.16648 20.6624 4.03128 20.6647 3.90256 20.6317C3.77384 20.5988 3.65635 20.5319 3.5624 20.4379C3.46845 20.344 3.4015 20.2265 3.36858 20.0978C3.33565 19.969 3.33796 19.8338 3.37525 19.7063L4.2565 16.5938Z" stroke="white" stroke-linecap="round" stroke-linejoin="round"/>
<path id="Vector_2" d="M9.37502 7.12502C8.68045 7.12502 8.01419 7.40029 7.52217 7.89055C7.03016 8.38081 6.7525 9.04608 6.75002 9.74065C6.74755 10.7275 6.9401 11.7051 7.3166 12.6173C7.69311 13.5295 8.24615 14.3583 8.94395 15.0561C9.64176 15.7539 10.4706 16.3069 11.3828 16.6834C12.295 17.0599 13.2726 17.2525 14.2594 17.25C14.9532 17.2451 15.6171 16.9666 16.1068 16.4752C16.5965 15.9837 16.8726 15.3188 16.875 14.625L9.37502 7.12502ZM9.37502 7.12502C9.48962 7.12411 9.60234 7.1541 9.70133 7.21184C9.80032 7.26958 9.88191 7.35294 9.93752 7.45315L9.37502 7.12502ZM15.7526 16.1222C15.3561 16.5202 14.8186 16.7458 14.2568 16.75C13.3363 16.7522 12.4244 16.5725 11.5735 16.2213C10.7222 15.8699 9.94873 15.3538 9.29751 14.7025C8.64628 14.0513 8.13016 13.2778 7.77878 12.4265C7.42744 11.5753 7.24775 10.6631 7.25002 9.74218C7.25209 9.18 7.47686 8.64155 7.8751 8.24473C8.27339 7.84786 8.81275 7.62502 9.37502 7.62504L9.37902 7.625C9.40373 7.62481 9.42805 7.63128 9.4494 7.64373C9.47075 7.65619 9.48835 7.67416 9.50034 7.69578L9.5003 7.6958L9.5038 7.7019L10.5992 9.61182C10.6209 9.65116 10.6321 9.69547 10.6315 9.74042C10.6309 9.78573 10.6185 9.8301 10.5955 9.86912C10.5954 9.8693 10.5953 9.86949 10.5951 9.86968L9.71479 11.34C9.6308 11.4803 9.6207 11.6528 9.68773 11.8019C10.1893 12.9176 11.0824 13.8108 12.1981 14.3123C12.3473 14.3793 12.5197 14.3692 12.66 14.2853L14.1304 13.4049C14.1306 13.4048 14.1307 13.4047 14.1309 13.4046C14.1699 13.3815 14.2143 13.3691 14.2596 13.3685C14.3046 13.368 14.3489 13.3791 14.3882 13.4009L16.2981 14.4962L16.2981 14.4963L16.3043 14.4997C16.3259 14.5117 16.3439 14.5293 16.3563 14.5506C16.3688 14.572 16.3752 14.5963 16.375 14.621L16.375 14.6233C16.373 15.1854 16.1494 15.724 15.7526 16.1222Z" stroke="white" stroke-linecap="round" stroke-linejoin="round"/>
</g>
</svg>
