<svg width="24" height="24" viewBox="0 0 24 24" fill="none" xmlns="http://www.w3.org/2000/svg">
<g id="Frame">
<path id="Vector" d="M16.6645 13.5664L16.6521 13.5613L16.6394 13.5569L16.6336 13.5549C16.4534 13.4922 16.1828 13.398 15.9013 13.4293C15.5631 13.4669 15.3072 13.6632 15.1071 13.9459L15.107 13.9458L15.1016 13.9537C14.8295 14.3539 14.0427 15.2929 13.8016 15.5686L13.7966 15.5742L13.7919 15.58C13.7557 15.6238 13.7333 15.6403 13.7255 15.6453C13.7253 15.6454 13.7252 15.6455 13.725 15.6455C13.7187 15.6455 13.7025 15.6445 13.673 15.6366C13.6304 15.6252 13.5688 15.6018 13.4827 15.5571L13.4756 15.5534L13.4684 15.5499C13.3985 15.5164 13.3098 15.4781 13.2043 15.4326C12.6109 15.1767 11.4852 14.6912 10.1736 13.5192L10.1732 13.5188C8.97166 12.4472 8.1661 11.1238 7.90764 10.6932C7.87582 10.6352 7.86895 10.6037 7.86749 10.5943C7.87054 10.5881 7.87848 10.5741 7.89721 10.5505C7.92437 10.5164 7.96042 10.4787 8.0167 10.4225C8.16221 10.277 8.34339 10.0581 8.49981 9.86914C8.56458 9.7909 8.62511 9.71778 8.6771 9.65712C8.90717 9.38872 9.02033 9.16059 9.13814 8.92311C9.14977 8.89966 9.16145 8.87612 9.17329 8.85244L9.17342 8.8525L9.17848 8.84173C9.40735 8.35539 9.27666 7.94335 9.139 7.66804L9.13877 7.66757C9.13854 7.66709 9.13813 7.66626 9.13754 7.66502L9.1335 7.65644L9.12032 7.62741C9.10952 7.6033 9.09581 7.57203 9.07929 7.53382C9.04631 7.4575 9.00378 7.35733 8.95398 7.23881C8.85446 7.00198 8.72746 6.69571 8.59266 6.36834C8.32301 5.71347 8.02368 4.97796 7.85309 4.55149L7.85313 4.55147L7.85039 4.54488C7.65561 4.07743 7.41426 3.77002 7.09323 3.61576C6.83408 3.49124 6.52503 3.4995 6.47028 3.50097C6.46568 3.50109 6.46288 3.50116 6.46205 3.50111L6.44544 3.5H6.42879H5.60588C5.19807 3.5 4.61021 3.64533 4.10641 4.19293L4.10632 4.19285L4.09902 4.20114C4.07103 4.23296 4.03821 4.26891 4.00144 4.30919C3.5491 4.80478 2.5 5.95416 2.5 8.08023C2.5 9.23866 2.91949 10.3492 3.34285 11.1826C3.76384 12.0113 4.21062 12.6079 4.32679 12.7627C4.33519 12.7748 4.34734 12.7926 4.36319 12.8158C4.76741 13.4082 7.57461 17.5224 11.7836 19.3392C12.8168 19.7944 13.6241 20.0578 14.2511 20.2494C15.3634 20.6068 16.3734 20.5465 17.1443 20.439L17.1473 20.4385C17.6535 20.3647 18.3516 20.07 18.9571 19.6807C19.549 19.3002 20.18 18.7484 20.4096 18.0876C20.6035 17.551 20.7028 17.0505 20.7365 16.6489C20.7533 16.4483 20.7544 16.2641 20.7398 16.1073C20.7275 15.9746 20.6982 15.7835 20.6001 15.6294C20.4695 15.4242 20.2816 15.3057 20.126 15.2229C20.0353 15.1746 19.9159 15.1194 19.7941 15.0631C19.7249 15.0311 19.6548 14.9987 19.5888 14.967C19.4929 14.921 19.3012 14.8276 19.0591 14.7096C18.2762 14.3281 16.9664 13.6899 16.6645 13.5664Z" stroke="white"/>
</g>
</svg>
