<svg width="28" height="28" viewBox="0 0 28 28" fill="none" xmlns="http://www.w3.org/2000/svg">
<g id="ant-design:arrow-left-outlined">
<path id="Vector" d="M23.6413 13.0508H7.64252L17.2183 4.73828C17.3714 4.6043 17.2785 4.35547 17.0761 4.35547H14.6562C14.5495 4.35547 14.4484 4.39375 14.3691 4.46211L4.03588 13.4281C3.94124 13.5102 3.86533 13.6116 3.81332 13.7255C3.7613 13.8394 3.73437 13.9632 3.73438 14.0885C3.73437 14.2137 3.7613 14.3375 3.81332 14.4514C3.86533 14.5654 3.94124 14.6668 4.03588 14.7488L14.4292 23.7695C14.4703 23.8051 14.5195 23.8242 14.5714 23.8242H17.0734C17.2757 23.8242 17.3687 23.5727 17.2156 23.4414L7.64252 15.1289H23.6413C23.7617 15.1289 23.8601 15.0305 23.8601 14.9102V13.2695C23.8601 13.1492 23.7617 13.0508 23.6413 13.0508Z" fill="#CA9E6E"/>
</g>
</svg>
